# xmcd
#
# Track frame offsets:
#	150
#	16980
#	31747
#	49430
#	65815
#	81300
#	97035
#	111382
#	125492
#	141380
#	152185
#	168597
#	189787
#	203952
#	217295
#	226162
#
# Disc length: 3180 seconds
#
# Revision: 0
# Processed by: cddbd v1.5.2PL0 Copyright (c) Steve Scherf et al.
# Submitted via: dBpowerAMP V4.0
#
DISCID=f00c6a10
DTITLE=Clive Bruce - Just One More Dance
DYEAR=1996
DGENRE=Country
TTITLE0=Just one more dance
TTITLE1=Kom dans kleine Madelein
TTITLE2=Here is my love
TTITLE3=Hush hush Maria
TTITLE4=Living next door to Alice
TTITLE5=Sayonara
TTITLE6=The Spanish night is over
TTITLE7=God must be a cowboy at heart
TTITLE8=Is this the way to Amarillo
TTITLE9=Do wah diddy
TTITLE10=Going back West
TTITLE11=Have you ever really loved a woman
TTITLE12=Sewe dae sonneskyn
TTITLE13=It's now or never
TTITLE14=It's another world
TTITLE15=Seven Spanish angels
EXTD=
EXTT0=
EXTT1=
EXTT2=
EXTT3=
EXTT4=
EXTT5=
EXTT6=
EXTT7=
EXTT8=
EXTT9=
EXTT10=
EXTT11=
EXTT12=
EXTT13=
EXTT14=
EXTT15=
PLAYORDER=
